<?xml version="1.0" encoding="UTF-8"?>
<!DOCTYPE svg PUBLIC "-//W3C//DTD SVG 1.1//EN" "http://www.w3.org/Graphics/SVG/1.1/DTD/svg11.dtd">
<!-- Creator: CorelDRAW X7 -->
<svg xmlns="http://www.w3.org/2000/svg" xml:space="preserve" width="1000px" height="1000px" version="1.1" style="shape-rendering:geometricPrecision; text-rendering:geometricPrecision; image-rendering:optimizeQuality; fill-rule:evenodd; clip-rule:evenodd"
viewBox="0 0 1000 1000"
 xmlns:xlink="http://www.w3.org/1999/xlink">
 <defs>
  <style type="text/css">
   <![CDATA[
    .fil0 {fill:none}
    .fil1 {fill:#336699}
    .fil2 {fill:white}
   ]]>
  </style>
 </defs>
 <g id="Layer_x0020_1">
  <metadata id="CorelCorpID_0Corel-Layer"/>
  <rect class="fil0 str0" x="2" y="-1" width="1000" height="1000"/>
  <g id="_1211998917232">
   <path class="fil1" d="M974 550l-19 15c-22,18 -28,48 -18,74l10 23c15,36 -4,77 -42,87l-24 6c-25,8 -45,32 -47,59l-2 26c-2,36 -32,61 -63,61 -4,0 -8,0 -12,-2l-26 -4c-4,0 -8,-2 -12,-2 -23,0 -45,12 -57,34l-12 22c-12,22 -33,33 -57,33 -14,0 -26,-4 -38,-11l-19 -14c-12,-8 -24,-12 -38,-12 -14,0 -26,4 -38,12l-19 14c-12,7 -24,11 -38,11 -22,0 -45,-11 -57,-33l-12 -22c-12,-22 -34,-34 -57,-34 -4,0 -8,0 -12,0l-20 4c-4,0 -8,0 -12,0 -33,0 -63,-25 -63,-61l-2 -26c-2,-27 -20,-51 -48,-59l-23 -4c-38,-10 -58,-51 -42,-87l10 -23c10,-26 4,-56 -16,-74l-19 -17c-30,-26 -30,-72 0,-97l19 -16c22,-18 28,-47 18,-73l-10 -24c-16,-35 4,-77 42,-87l23 -6c26,-8 46,-31 48,-59l2 -26c2,-35 31,-61 63,-61 4,0 8,0 12,2l26 4c4,0 8,2 12,2 23,0 45,-12 57,-34l12 -21c12,-22 33,-34 57,-34 14,0 26,4 38,12l19 14c12,8 24,11 38,11 14,0 26,-3 37,-11l20 -14c12,-8 24,-12 38,-12 21,0 45,12 57,34l12 21c12,22 34,34 57,34 4,0 8,0 12,0l26 -4c4,0 8,0 12,0 33,0 63,26 63,61l2 26c2,28 20,51 47,59l24 8c38,10 57,51 42,87l-10 24c-10,25 -4,55 15,73l20 18c24,21 24,67 -6,93z"/>
   <path class="fil2" d="M249 536c3,58 24,109 66,151 49,49 113,66 181,66 54,0 119,-6 166,-35 39,-24 64,-61 79,-106l3 -9 123 0 -6 18c-11,32 -25,62 -44,90 -20,30 -44,55 -72,76 -32,24 -69,41 -107,53 -45,14 -94,19 -142,19 -57,0 -116,-8 -170,-31 -44,-19 -84,-47 -116,-84 -28,-34 -50,-73 -63,-116 -13,-42 -20,-85 -20,-129 0,-47 8,-93 23,-137 15,-43 38,-81 69,-115 32,-35 72,-61 117,-79 50,-21 106,-29 160,-29 46,0 92,6 137,18 45,12 85,33 122,62 40,31 69,73 89,119 26,57 34,122 34,184l0 14 -629 0zm2 -99l502 0c-6,-27 -15,-55 -30,-79 -15,-25 -35,-48 -59,-65 -47,-35 -103,-47 -161,-47 -30,0 -59,4 -87,11 -28,8 -54,20 -77,37 -24,17 -44,40 -59,65 -15,24 -24,51 -29,78z"/>
  </g>
 </g>
</svg>
