<?xml version="1.0" encoding="UTF-8"?>
<!DOCTYPE svg PUBLIC "-//W3C//DTD SVG 1.1//EN" "http://www.w3.org/Graphics/SVG/1.1/DTD/svg11.dtd">
<!-- Creator: CorelDRAW X7 -->
<svg xmlns="http://www.w3.org/2000/svg" xml:space="preserve" width="1000px" height="780px" version="1.1" style="shape-rendering:geometricPrecision; text-rendering:geometricPrecision; image-rendering:optimizeQuality; fill-rule:evenodd; clip-rule:evenodd"
viewBox="0 0 1000 780"
 xmlns:xlink="http://www.w3.org/1999/xlink">
 <defs>
  <style type="text/css">
   <![CDATA[
    .fil0 {fill:#336699}
    .fil1 {fill:white}
    .fil2 {fill:#336699;fill-rule:nonzero}
   ]]>
  </style>
 </defs>
 <g id="Layer_x0020_1">
  <metadata id="CorelCorpID_0Corel-Layer"/>
  <g id="_1212006008192">
   <g>
    <path class="fil0" d="M800 338l-13 10c-13,11 -17,30 -11,46l6 15c10,22 -2,49 -26,55l-15 4c-16,5 -29,20 -30,37l-1 16c-1,23 -20,39 -40,39 -2,0 -5,0 -7,-1l-17 -3c-2,0 -5,-1 -7,-1 -15,0 -29,8 -36,21l-8 14c-7,14 -21,21 -36,21 -9,0 -16,-2 -24,-7l-12 -9c-8,-5 -15,-7 -24,-7 -9,0 -16,2 -24,7l-12 9c-8,5 -15,7 -24,7 -14,0 -29,-7 -36,-21l-8 -14c-7,-13 -21,-21 -36,-21 -2,0 -5,0 -7,0l-13 3c-2,0 -5,0 -7,0 -22,0 -40,-17 -40,-39l-2 -16c-1,-18 -12,-33 -30,-38l-14 -2c-24,-7 -37,-33 -27,-55l7 -15c6,-16 2,-35 -10,-46l-13 -12c-19,-16 -19,-45 0,-61l13 -10c13,-11 17,-30 11,-46l-6 -15c-10,-22 2,-49 26,-55l15 -4c16,-5 28,-20 30,-37l1 -16c1,-23 20,-39 40,-39 2,0 5,0 7,1l17 3c2,0 5,1 7,1 15,0 29,-8 36,-21l8 -14c7,-14 21,-21 36,-21 9,0 16,2 24,7l12 9c8,5 15,7 24,7 9,0 16,-2 24,-7l12 -9c8,-5 15,-7 24,-7 14,0 29,7 36,21l8 14c7,13 21,21 36,21 2,0 5,0 7,0l17 -3c2,0 5,0 7,0 21,0 40,17 40,39l1 16c1,18 13,33 30,38l15 5c24,6 36,32 26,55l-6 15c-6,16 -2,35 10,46l13 11c15,14 15,43 -4,59z"/>
    <path class="fil0" d="M88 404l0 0 69 0c1,-6 4,-14 6,-20l1 -1 -1 -1c-21,-19 -33,-48 -33,-77 0,-28 12,-56 34,-76l2 -1 -2 -1c-2,-7 -3,-12 -5,-18l-71 0 0 0 -70 0c-9,0 -14,10 -8,16l63 77c2,2 2,6 0,8l-63 78c-5,6 -1,16 8,16l70 0z"/>
    <path class="fil0" d="M898 208l0 0 89 0c9,0 14,10 8,16l-63 78c-2,2 -2,6 0,8l63 77c5,6 1,16 -8,16l-89 0 0 0 -53 0c-1,-5 -3,-11 -5,-16l-1 -3 1 -1c21,-19 35,-46 35,-76 0,-30 -13,-57 -34,-77l-1 -1 1 -1c3,-6 5,-13 6,-20l51 0z"/>
    <path class="fil1" d="M342 329c2,37 15,69 42,96 31,30 71,41 114,41 34,0 75,-4 104,-22 25,-15 41,-39 50,-66l2 -7 78 0 -4 12c-7,20 -16,39 -28,57 -12,18 -27,34 -45,48 -20,15 -43,26 -67,33 -29,9 -60,12 -90,12 -37,0 -74,-5 -107,-19 -29,-13 -54,-30 -74,-53 -18,-22 -31,-47 -40,-74 -8,-26 -12,-53 -12,-81 0,-30 4,-59 14,-86 10,-28 24,-52 44,-73 20,-23 45,-39 73,-50 33,-13 67,-18 102,-18 29,0 58,3 86,11 28,8 54,21 77,39 26,20 44,46 57,75 16,36 21,77 21,116l0 9 -397 0zm1 -62l317 0c-4,-18 -10,-35 -19,-50 -9,-16 -22,-30 -37,-41 -30,-22 -65,-30 -102,-30 -19,0 -37,2 -55,7 -18,5 -34,13 -49,24 -15,10 -27,24 -37,40 -9,16 -15,32 -18,50z"/>
   </g>
   <path class="fil2" d="M61 775l85 0 0 -26 -57 0 0 -23 51 0 0 -24 -51 0 0 -21 55 0 0 -25 -83 0 0 119zm187 -119l-28 0 -21 89 0 0 -20 -89 -29 0 33 119 31 0 34 -119zm8 119l84 0 0 -26 -57 0 0 -23 51 0 0 -24 -51 0 0 -21 55 0 0 -25 -82 0 0 119zm99 0l25 0 0 -74 1 0 36 74 28 0 0 -119 -26 0 0 74 0 0 -36 -74 -28 0 0 119zm191 -119l-90 0 0 27 31 0 0 92 27 0 0 -92 32 0 0 -27zm11 119l28 0 0 -119 -28 0 0 119zm46 0l27 0 0 -46 43 0 0 -24 -43 0 0 -24 50 0 0 -25 -77 0 0 119zm89 0l27 0 0 -119 -27 0 0 119zm142 -76c0,-7 -2,-13 -4,-19 -3,-6 -7,-10 -11,-14 -5,-4 -10,-7 -15,-9 -6,-2 -12,-3 -17,-3 -8,0 -15,1 -21,5 -7,3 -12,7 -17,13 -5,5 -8,12 -10,20 -3,7 -4,15 -4,24 0,8 1,16 4,24 2,7 5,14 10,20 5,5 10,10 17,13 6,3 13,5 21,5 6,0 12,-1 18,-4 6,-2 11,-5 15,-9 4,-4 7,-10 10,-16 2,-6 4,-12 4,-20l-27 0c0,7 -2,12 -6,16 -4,4 -9,6 -15,6 -4,0 -8,-1 -11,-3 -3,-2 -5,-4 -7,-8 -2,-3 -4,-7 -5,-11 -1,-4 -1,-9 -1,-13 0,-5 0,-9 1,-13 1,-5 3,-8 5,-12 2,-3 4,-6 7,-8 3,-2 7,-3 11,-3 6,0 11,2 14,5 4,3 6,8 7,14l27 0zm56 -10l1 0 11 42 -23 0 11 -42zm-52 86l28 0 6 -21 37 0 6 21 28 0 -39 -119 -27 0 -39 119z"/>
  </g>
 </g>
</svg>
