<?xml version="1.0" encoding="UTF-8"?>
<!DOCTYPE svg PUBLIC "-//W3C//DTD SVG 1.1//EN" "http://www.w3.org/Graphics/SVG/1.1/DTD/svg11.dtd">
<!-- Creator: CorelDRAW X7 -->
<svg xmlns="http://www.w3.org/2000/svg" xml:space="preserve" width="1000px" height="620px" version="1.1" style="shape-rendering:geometricPrecision; text-rendering:geometricPrecision; image-rendering:optimizeQuality; fill-rule:evenodd; clip-rule:evenodd"
viewBox="0 0 1000 620"
 xmlns:xlink="http://www.w3.org/1999/xlink">
 <defs>
  <style type="text/css">
   <![CDATA[
    .fil0 {fill:#336699}
    .fil1 {fill:white}
   ]]>
  </style>
 </defs>
 <g id="Layer_x0020_1">
  <metadata id="CorelCorpID_0Corel-Layer"/>
  <g id="_1211996597008">
   <path class="fil0" d="M800 341l-13 10c-13,11 -17,30 -11,46l6 15c10,23 -2,49 -26,55l-15 4c-16,5 -29,20 -30,37l-1 17c-1,22 -20,38 -40,38 -2,0 -5,0 -7,-1l-17 -2c-2,0 -5,-2 -7,-2 -15,0 -29,8 -36,21l-8 14c-7,14 -21,21 -36,21 -9,0 -16,-2 -24,-7l-12 -9c-8,-5 -15,-7 -24,-7 -9,0 -16,2 -24,7l-12 9c-8,5 -15,7 -24,7 -14,0 -29,-7 -36,-21l-8 -14c-7,-13 -21,-21 -36,-21 -2,0 -5,0 -7,0l-13 3c-2,0 -5,0 -7,0 -22,0 -40,-16 -40,-39l-2 -16c-1,-18 -12,-33 -30,-38l-14 -2c-24,-6 -37,-33 -27,-55l7 -15c6,-16 2,-35 -10,-46l-13 -11c-19,-17 -19,-45 0,-62l13 -10c13,-11 17,-30 11,-46l-6 -15c-10,-22 2,-49 26,-55l15 -4c16,-5 28,-19 30,-37l1 -16c1,-23 20,-39 40,-39 2,0 5,0 7,1l17 3c2,0 5,1 7,1 15,0 29,-7 36,-21l8 -14c7,-14 21,-21 36,-21 9,0 16,2 24,7l12 9c8,5 15,8 24,8 9,0 16,-3 24,-8l12 -9c8,-5 15,-7 24,-7 14,0 29,7 36,21l8 14c7,14 21,21 36,21 2,0 5,0 7,0l17 -2c2,0 5,0 7,0 21,0 40,16 40,38l1 17c1,17 13,32 30,37l15 5c24,6 36,32 26,55l-6 15c-6,16 -2,35 10,46l13 11c15,14 15,43 -4,59z"/>
   <path class="fil0" d="M88 407l0 0 69 0c1,-6 4,-14 6,-20l1 -1 -1 -1c-21,-19 -33,-48 -33,-76 0,-29 12,-57 34,-77l2 -1 -2 -1c-2,-6 -3,-11 -5,-18l-71 0 0 0 -70 0c-9,0 -14,10 -8,17l63 76c2,2 2,6 0,9l-63 77c-5,6 -1,16 8,16l70 0z"/>
   <path class="fil0" d="M898 211l0 0 89 0c9,0 14,10 8,16l-63 78c-2,2 -2,6 0,9l63 76c5,6 1,16 -8,16l-89 0 0 0 -53 0c-1,-5 -3,-11 -5,-16l-1 -3 1 -1c21,-19 35,-46 35,-76 0,-30 -13,-56 -34,-76l-1 -2 1 -1c3,-6 5,-12 6,-20l51 0z"/>
   <path class="fil1" d="M342 332c2,37 15,69 42,96 31,30 71,41 114,41 34,0 75,-3 104,-22 25,-15 41,-38 50,-66l2 -7 78 0 -4 12c-7,21 -16,40 -28,57 -12,19 -27,34 -45,48 -20,15 -43,26 -67,33 -29,9 -60,13 -90,13 -37,0 -74,-5 -107,-20 -29,-12 -54,-30 -74,-53 -18,-22 -31,-46 -40,-73 -8,-27 -12,-54 -12,-82 0,-29 4,-58 14,-86 10,-27 24,-52 44,-73 20,-22 45,-39 73,-50 33,-13 67,-18 102,-18 29,0 58,3 86,11 28,8 54,21 77,39 26,20 44,46 57,75 16,36 21,77 21,116l0 9 -397 0zm1 -62l317 0c-4,-17 -10,-35 -19,-50 -9,-16 -22,-30 -37,-41 -30,-22 -65,-30 -102,-30 -19,0 -37,2 -55,8 -18,4 -34,12 -49,23 -15,11 -27,25 -37,40 -9,16 -15,33 -18,50z"/>
  </g>
 </g>
</svg>
